<svg xmlns="http://www.w3.org/2000/svg" viewBox="0 0 64 64"><circle cx="32" cy="29" r="21" fill="#FF8000"/><path fill="#FF8000" d="M41 54H23a1 1 0 0 1-1-1v-6h20v6a1 1 0 0 1-1 1zM32 6a1 1 0 0 1-1-1V3a1 1 0 1 1 2 0v2a1 1 0 0 1-1 1zM48.971 13.029a.999.999 0 0 1-.707-1.707l1.414-1.414a.999.999 0 1 1 1.414 1.414l-1.414 1.414a.995.995 0 0 1-.707.293zM58 30h-2a1 1 0 1 1 0-2h2a1 1 0 1 1 0 2zM50.385 48.385a.997.997 0 0 1-.707-.293l-1.414-1.414a.999.999 0 1 1 1.414-1.414l1.414 1.414a.999.999 0 0 1-.707 1.707zM13.615 48.385a.999.999 0 0 1-.707-1.707l1.414-1.414a.999.999 0 1 1 1.414 1.414l-1.414 1.414a.997.997 0 0 1-.707.293zM8 30H6a1 1 0 1 1 0-2h2a1 1 0 1 1 0 2zM15.029 13.029a.997.997 0 0 1-.707-.293l-1.414-1.414a.999.999 0 1 1 1.414-1.414l1.414 1.414a.999.999 0 0 1-.707 1.707z"/><path fill="#CCC" d="M39 57H25a1 1 0 0 1-1-1v-3h16v3a1 1 0 0 1-1 1z"/><path fill="#4D4D4D" d="M26.286 60v-3h11.429v3a1 1 0 0 1-1 1h-9.429a1 1 0 0 1-1-1z"/><path d="M23 48h18v2H23z"/><path fill="#FFF" d="M32 50a1 1 0 0 1-1-1V34c0-.266.105-.52.293-.707L37.586 27H24a1 1 0 1 1 0-2h16a1 1 0 0 1 .707 1.707L33 34.414V49a1 1 0 0 1-1 1z"/><path fill="#4D4D4D" d="M22 48v5a1 1 0 0 0 1 1h18a1 1 0 0 0 1-1v-5H22z"/></svg>